<svg width="2476" height="2476" xmlns="http://www.w3.org/2000/svg" xmlns:xlink="http://www.w3.org/1999/xlink" xml:space="preserve" overflow="hidden"><g transform="translate(-962 1)"><path d="M1469.25 2012.21C1407.84 1964.14 1387.55 1899.92 1387.42 1828.39 1386.76 1490.47 1385.34 1152.53 1387.81 814.605 1388.93 661.193 1483.31 581.712 1637.61 597.718 1708.29 605.043 1778.47 617.374 1855.54 628.38 1855.54 580.165 1856.65 532.19 1855.23 484.299 1853.59 428.392 1859.62 421.486 1915.31 421.757 1992.68 422.133 2070.07 421.851 2149.41 421.851 2149.41 968.648 2149.41 1512.33 2149.41 2067.21 2043.14 2057.37 1939.31 2047.56 1835.45 2038.46 1826.24 2037.68 1816.18 2040.36 1807.26 2043.51 1690.74 2084.72 1579.04 2072.8 1469.25 2012.21M1858.07 1401.59C1858.12 1345.33 1858.27 1289.06 1858.2 1232.8 1858.07 1112.72 1858.2 992.693 1857.44 872.642 1857.2 834.825 1849.7 800.31 1806.65 786.407 1740.12 764.897 1688 798.867 1683.19 868.117 1682.06 884.315 1682.21 900.622 1682.21 916.863 1682.15 1149.45 1682.01 1382.03 1682.25 1614.61 1682.32 1672.1 1682.21 1729.66 1684.88 1787.06 1687 1832.57 1720.89 1867.74 1760.78 1871.17 1805.06 1874.98 1836.95 1851.19 1848.8 1802.12 1854.31 1779.28 1857.02 1755.25 1857.24 1731.73 1858.25 1624.21 1857.92 1516.66 1858.07 1401.59Z" fill="#26365F" fill-rule="evenodd"/><path d="M2241.41 1496.06C2241.41 1136.85 2241.41 781.405 2241.41 424.208 2333.26 424.208 2421.6 424.198 2509.95 424.266 2512.4 424.268 2515.54 424.272 2517.16 425.674 2578.65 478.724 2643.12 440.111 2705 429.3 2848.69 404.191 2957.54 464.868 2993.78 599.306 3003.4 634.988 3005.08 673.551 3005.58 710.836 3007.07 820.834 3006.11 930.831 3006.11 1043.23 2905.91 1043.23 2809.26 1043.23 2708.72 1043.23 2708.72 982.725 2708.83 922.98 2708.7 863.236 2708.57 810.643 2708.91 758.006 2707.71 705.413 2706.23 640.877 2680.59 607.843 2633.95 607.729 2585.86 607.618 2535.87 659.815 2534.78 711.864 2534.45 728.112 2536.13 744.404 2536.13 760.674 2536.22 1180.35 2536.2 1600.02 2536.2 2019.72 2536.2 2029.43 2536.2 2039.16 2536.2 2050.75 2437.45 2050.75 2341.76 2050.75 2241.41 2050.75 2241.41 1867.08 2241.41 1683.45 2241.41 1496.06Z" fill="#EC1E27" fill-rule="evenodd"/><path d="M2433.47 2328.02C2389.77 2367.47 2351.21 2409.69 2305.42 2441.53 2231.08 2493.25 2130.81 2483.41 2066.66 2420.19 1973.87 2328.74 1884.03 2234.28 1793.09 2140.97 1790.86 2138.68 1790.38 2134.65 1788.41 2129.78 1858.11 2116.2 1915.17 2127.57 1964.05 2184.47 2012.82 2241.23 2068.35 2292.62 2124.05 2342.89 2180.15 2393.56 2227.28 2392.22 2284.1 2342.54 2312.33 2317.85 2337.13 2289.25 2364.75 2263.8 2414.35 2218.1 2464.96 2173.49 2515.04 2128.29 2528.03 2116.55 2541.22 2104.92 2553.27 2092.23 2718.81 1917.93 2883.71 1743 3049.79 1569.23 3122.48 1493.15 3197.87 1419.62 3271.53 1344.42 3358.31 1255.81 3358.85 1214.59 3272.88 1127.04 3233.45 1086.89 3192.16 1048.5 3150.63 1010.49 3100.42 964.506 3081.54 909.424 3095.47 834.749 3158.3 892.259 3216.72 944.323 3273.47 998.159 3311.61 1034.35 3348.36 1072.16 3384.05 1110.77 3446.81 1178.71 3454.67 1251.79 3405.2 1330.29 3385.38 1361.76 3360.27 1390.62 3334.07 1417.21 3034.89 1720.57 2735.03 2023.27 2433.47 2328.02Z" fill="#EC222B" fill-rule="evenodd"/><path d="M2373.14 235.168C2342.89 204.973 2315.31 175.833 2286.02 148.513 2222.64 89.391 2154.76 90.0441 2094.39 151.535 2011.02 236.45 1927.82 321.232 1826.06 385.196 1814.8 392.284 1806.22 407.452 1801.59 420.687 1771.51 506.636 1712.44 537.257 1617.41 510.2 1626.36 497.44 1632.94 484.711 1642.52 474.912 1773.83 340.623 1904.99 206.188 2037.33 72.9386 2133.61-23.9779 2240.56-25.0811 2335.65 72.2483 2423.85 162.529 2508.23 256.547 2599.41 354.407 2541.43 357.667 2493.49 355.524 2454.8 316.642 2428.32 290.008 2401.61 263.571 2373.14 235.168Z" fill="#2A3A62" fill-rule="evenodd"/><path d="M1232.03 1029.18C1184.59 1079.17 1137.44 1125.92 1094.14 1175.99 1048.92 1228.3 1048.4 1272.69 1094.14 1323.38 1140.11 1374.31 1188.47 1423.7 1240.22 1468.66 1295.73 1516.92 1317.15 1573.17 1303.35 1648.75 1295.34 1644.02 1289.81 1642.03 1285.95 1638.29 1197.01 1552.12 1108.8 1465.18 1019.36 1379.56 934.55 1298.39 951.123 1178.95 1025.3 1105.25 1097.2 1033.8 1170.18 963.419 1242.06 891.969 1259.61 874.49 1274.75 854.582 1293.63 832.749 1324.27 908.508 1302.21 972.563 1232.03 1029.18Z" fill="#2A3A62" fill-rule="evenodd"/></g></svg>