<svg width="1132" height="1132" xmlns="http://www.w3.org/2000/svg" xmlns:xlink="http://www.w3.org/1999/xlink" xml:space="preserve" overflow="hidden"><defs><clipPath id="clip0"><rect x="1629" y="694" width="1132" height="1132"/></clipPath></defs><g clip-path="url(#clip0)" transform="translate(-1629 -694)"><path d="M1860.89 1614.59C1832.8 1592.6 1823.52 1563.22 1823.46 1530.5 1823.16 1375.91 1822.51 1221.31 1823.64 1066.72 1824.15 996.538 1867.32 960.178 1937.9 967.5 1970.23 970.851 2002.33 976.492 2037.58 981.527 2037.58 959.47 2038.09 937.523 2037.44 915.614 2036.69 890.038 2039.45 886.879 2064.92 887.003 2100.31 887.175 2135.71 887.046 2172 887.046 2172 1137.19 2172 1385.91 2172 1639.75 2123.39 1635.25 2075.9 1630.76 2028.39 1626.6 2024.18 1626.24 2019.58 1627.47 2015.5 1628.91 1962.2 1647.76 1911.11 1642.31 1860.89 1614.59M2038.74 1335.25C2038.76 1309.51 2038.83 1283.77 2038.8 1258.03 2038.74 1203.1 2038.8 1148.19 2038.45 1093.27 2038.34 1075.97 2034.91 1060.18 2015.22 1053.82 1984.79 1043.98 1960.95 1059.52 1958.75 1091.2 1958.23 1098.61 1958.3 1106.07 1958.3 1113.5 1958.27 1219.9 1958.21 1326.3 1958.32 1432.7 1958.35 1459 1958.3 1485.33 1959.52 1511.59 1960.49 1532.41 1975.99 1548.5 1994.24 1550.07 2014.49 1551.81 2029.08 1540.93 2034.5 1518.48 2037.02 1508.03 2038.26 1497.04 2038.36 1486.28 2038.82 1437.09 2038.67 1387.89 2038.74 1335.25Z" fill="#26365F" fill-rule="evenodd"/><path d="M2214 1378.35C2214 1214.09 2214 1051.55 2214 888.21 2256.02 888.21 2296.44 888.205 2336.86 888.236 2337.98 888.237 2339.42 888.239 2340.16 888.88 2368.29 913.139 2397.79 895.482 2426.1 890.538 2491.84 879.056 2541.64 906.803 2558.22 968.279 2562.62 984.596 2563.39 1002.23 2563.62 1019.28 2564.3 1069.58 2563.86 1119.88 2563.86 1171.28 2518.02 1171.28 2473.8 1171.28 2427.8 1171.28 2427.8 1143.61 2427.85 1116.29 2427.79 1088.97 2427.73 1064.92 2427.89 1040.85 2427.34 1016.8 2426.66 987.289 2414.93 972.183 2393.59 972.131 2371.59 972.08 2348.72 995.949 2348.22 1019.75 2348.07 1027.18 2348.84 1034.63 2348.84 1042.07 2348.88 1233.98 2348.87 1425.89 2348.87 1617.81 2348.87 1622.25 2348.87 1626.7 2348.87 1632 2303.69 1632 2259.91 1632 2214 1632 2214 1548.01 2214 1464.04 2214 1378.35Z" fill="#EC1E27" fill-rule="evenodd"/><path d="M2301.95 1758.9C2281.97 1776.94 2264.34 1796.25 2243.4 1810.81 2209.41 1834.46 2163.56 1829.96 2134.23 1801.05 2091.8 1759.23 2050.72 1716.03 2009.14 1673.36 2008.12 1672.31 2007.9 1670.47 2007 1668.24 2038.87 1662.03 2064.96 1667.23 2087.31 1693.25 2109.61 1719.21 2135 1742.71 2160.47 1765.7 2186.12 1788.87 2207.67 1788.26 2233.65 1765.54 2246.56 1754.25 2257.9 1741.17 2270.53 1729.53 2293.21 1708.63 2316.35 1688.23 2339.25 1667.56 2345.19 1662.19 2351.22 1656.87 2356.73 1651.07 2432.42 1571.36 2507.82 1491.36 2583.76 1411.89 2617 1377.1 2651.47 1343.47 2685.15 1309.08 2724.83 1268.56 2725.08 1249.71 2685.77 1209.67 2667.74 1191.31 2648.86 1173.75 2629.87 1156.37 2606.91 1135.34 2598.28 1110.15 2604.65 1076 2633.38 1102.3 2660.09 1126.11 2686.04 1150.73 2703.48 1167.28 2720.28 1184.57 2736.6 1202.23 2765.3 1233.3 2768.89 1266.72 2746.27 1302.62 2737.21 1317.01 2725.73 1330.21 2713.75 1342.37 2576.95 1481.1 2439.84 1619.53 2301.95 1758.9Z" fill="#EC222B" fill-rule="evenodd"/><path d="M2274.54 801.749C2260.71 787.929 2248.1 774.592 2234.71 762.088 2205.73 735.028 2174.69 735.327 2147.09 763.471 2108.97 802.336 2070.93 841.14 2024.4 870.416 2019.25 873.66 2015.33 880.602 2013.21 886.66 1999.46 925.998 1972.45 940.013 1929 927.629 1933.09 921.789 1936.1 915.963 1940.48 911.478 2000.52 850.015 2060.49 788.485 2121 727.498 2165.02 683.14 2213.92 682.635 2257.4 727.182 2297.73 768.503 2336.31 811.534 2378 856.324 2351.49 857.816 2329.57 856.835 2311.88 839.039 2299.77 826.849 2287.56 814.749 2274.54 801.749Z" fill="#2A3A62" fill-rule="evenodd"/><path d="M1752.48 1164.79C1730.75 1187.64 1709.16 1209.01 1689.33 1231.9 1668.62 1255.81 1668.38 1276.1 1689.33 1299.27 1710.38 1322.55 1732.53 1345.13 1756.23 1365.68 1781.65 1387.74 1791.46 1413.45 1785.14 1448 1781.47 1445.84 1778.94 1444.93 1777.17 1443.22 1736.44 1403.83 1696.04 1364.09 1655.08 1324.95 1616.24 1287.85 1623.83 1233.25 1657.8 1199.56 1690.73 1166.9 1724.15 1134.73 1757.07 1102.07 1765.11 1094.08 1772.04 1084.98 1780.69 1075 1794.72 1109.63 1784.62 1138.91 1752.48 1164.79Z" fill="#2A3A62" fill-rule="evenodd"/><path d="M2038.92 1336.87C2038.86 1387.75 2039.01 1436.92 2038.55 1486.08 2038.45 1496.83 2037.2 1507.81 2034.67 1518.25 2029.21 1540.69 2014.54 1551.56 1994.19 1549.82 1975.83 1548.25 1960.25 1532.17 1959.27 1511.37 1958.04 1485.13 1958.1 1458.82 1958.07 1432.53 1957.95 1326.21 1958.01 1219.89 1958.04 1113.57 1958.04 1106.14 1957.97 1098.69 1958.49 1091.29 1960.71 1059.63 1984.68 1044.1 2015.28 1053.93 2035.08 1060.29 2038.53 1076.06 2038.64 1093.35 2038.99 1148.23 2038.94 1203.11 2038.99 1257.99 2039.02 1283.71 2038.95 1309.43 2038.92 1336.87Z" fill="#FEFBFB" fill-rule="evenodd"/></g></svg>